<svg id="Layer_1" data-name="Layer 1" xmlns="http://www.w3.org/2000/svg" viewBox="0 0 722.5 722.5"><defs><style>.cls-1{fill:#c1485f;}</style></defs><path class="cls-1" d="M407.83,407.8v.05s0,0,0,0h0Z" transform="translate(-46.57 -46.57)"/><path class="cls-1" d="M430.52,230.86c-.21.8-.35,1.63-.64,2.41Q414.43,274,399,314.79c-8.87,23.36-17.64,46.75-26.68,70a19.59,19.59,0,0,1-10.12,11.22c-5.79,2.65-11.48,5.49-17.24,8.18-.7.33-2,.68-2.29.36a3,3,0,0,1-.54-2.43c1.09-3.87,2.22-7.75,3.57-11.54q15.45-43.14,31-86.25,7.95-22.08,15.92-44.14c1.56-4.35,3.06-8.71,4.74-13a9.83,9.83,0,0,1,2.4-3.84C405,238.9,410,234,416.09,230.69c3.11-1.69,6.22-3.37,9.8-3.83C428.61,226.52,430.4,228.09,430.52,230.86Z" transform="translate(-46.57 -46.57)"/><path class="cls-1" d="M588,572.31c1.11,11.34-6.17,27-23.11,46.34-26.17,29.86-59.56,22.32-80.16.8-46-58.32-78.28-126.52-128.94-181.6l-.7.14c-20.52,55.48-41.86,110.65-62.77,166-2.57,5.95-3.39,13.13-9,17.2-4.52,3.56-9.31,9.05-15.51,7.14-2.47-.7-4.13-2-2.84-5.51,23.07-63.89,46.36-127.72,69.08-191.7-24.28,11-49.4,22.69-69.15,41.09-12.37,13.14-14.49,33.36,2.16,32.13a36.35,36.35,0,0,0,11.2-3.06c5.66-3.28,8.45,2.4,4.29,6.32-4.72,4.27-11.08,6.08-17.2,7h0c-43.38-.39-25.46-52.51,3.81-63,88-45.46,182.69-81.44,259.66-145,23.4-19.4,37.07-42.46,25.43-73.08-16.71-44.69-99.79-48-174.59-35.18-54.31,10.5-111.41,24.15-139.76,61.27-22.88,41.63,45.06,65.92,55.55,23.44,1.12-11.76-16.11-3.66-18.14-17.19-2.23-7.7,4.52-15.77,12.28-15.81,8.61-.2,14.21,9.64,15.08,18.11,3.83,26.87-12.37,42.74-31.16,46.45-22.62,4.48-49-8.65-48.71-41.38C233.91,224,308.92,202,351.9,188.62c46.21-11.87,97.1-14.69,142.91-7.34,43.85,7.1,122.37,44.57,87.27,98.83-50.64,71.58-139.79,99-215.48,135.75-3.35,1.2-6.62,5.65-5,8.57a871.27,871.27,0,0,1,56.66,74.36c17.58,20.93,41.34,70.51,66.76,101l0,.07c6.78,8.12,13.68,14.87,20.6,19.36,5.6,3.63,11.22,5.77,16.82,6h0c12.78,1.41,27.75-4.1,43.16-25,.35-.45.68-.92,1-1.39,8.26-12.09,14.3-20.68,10.16-31.8-7.72-15-26.65-5.66-29.69,8.63-.88,5.25-8.93,5.12-9.79,0-10.51-30.76-47.74-14.2-21.57,19,2.1,2.67,9.9,9.59,6.72,10.75,0,0-1.77,1.12-6.6-.77a24.16,24.16,0,0,1-11.31-9.25c-22.51-34,10.72-64.22,37.66-33.11,12.85-19.72,45.27-15.85,45.73,10.1Z" transform="translate(-46.57 -46.57)"/><path class="cls-1" d="M407.82,769.07A361.33,361.33,0,0,1,267.21,75,361.34,361.34,0,0,1,548.44,740.68,359,359,0,0,1,407.82,769.07Zm0-702.5c-188.16,0-341.25,153.09-341.25,341.25S219.66,749.07,407.82,749.07,749.07,596,749.07,407.82,596,66.57,407.82,66.57Z" transform="translate(-46.57 -46.57)"/></svg>